<mxfile host="app.diagrams.net" agent="Mozilla/5.0 (Windows NT 10.0; Win64; x64) AppleWebKit/537.36 (KHTML, like Gecko) Chrome/132.0.0.0 Safari/537.36" version="25.0.3">
  <diagram name="Страница — 1" id="oIJexR_Hb-AOH6Df9mzp">
    <mxGraphModel dx="989" dy="541" grid="1" gridSize="10" guides="1" tooltips="1" connect="1" arrows="1" fold="1" page="1" pageScale="1" pageWidth="827" pageHeight="1169" math="0" shadow="0">
      <root>
        <mxCell id="0" />
        <mxCell id="1" parent="0" />
        <mxCell id="-Rt-zTYZwK-1e3K4c5Id-1" value="Клиентская часть (index3.html)" style="rounded=1;whiteSpace=wrap;html=1;" vertex="1" parent="1">
          <mxGeometry x="55" y="20" width="120" height="60" as="geometry" />
        </mxCell>
        <mxCell id="-Rt-zTYZwK-1e3K4c5Id-2" value="Серверная часть (app.py)" style="rounded=1;whiteSpace=wrap;html=1;" vertex="1" parent="1">
          <mxGeometry x="55" y="230" width="120" height="60" as="geometry" />
        </mxCell>
        <mxCell id="-Rt-zTYZwK-1e3K4c5Id-3" value="" style="endArrow=classic;html=1;rounded=0;entryX=0.25;entryY=0;entryDx=0;entryDy=0;exitX=0.25;exitY=1;exitDx=0;exitDy=0;" edge="1" parent="1" source="-Rt-zTYZwK-1e3K4c5Id-1" target="-Rt-zTYZwK-1e3K4c5Id-2">
          <mxGeometry width="50" height="50" relative="1" as="geometry">
            <mxPoint x="-5" y="180" as="sourcePoint" />
            <mxPoint x="45" y="130" as="targetPoint" />
          </mxGeometry>
        </mxCell>
        <mxCell id="-Rt-zTYZwK-1e3K4c5Id-4" value="" style="endArrow=classic;html=1;rounded=0;entryX=0.75;entryY=1;entryDx=0;entryDy=0;exitX=0.75;exitY=0;exitDx=0;exitDy=0;" edge="1" parent="1" source="-Rt-zTYZwK-1e3K4c5Id-2" target="-Rt-zTYZwK-1e3K4c5Id-1">
          <mxGeometry width="50" height="50" relative="1" as="geometry">
            <mxPoint x="115" y="170" as="sourcePoint" />
            <mxPoint x="165" y="120" as="targetPoint" />
          </mxGeometry>
        </mxCell>
        <mxCell id="-Rt-zTYZwK-1e3K4c5Id-5" value="Запрос&amp;nbsp;&lt;div&gt;координат&lt;/div&gt;" style="text;html=1;align=center;verticalAlign=middle;resizable=0;points=[];autosize=1;strokeColor=none;fillColor=none;" vertex="1" parent="1">
          <mxGeometry x="5" y="113" width="80" height="40" as="geometry" />
        </mxCell>
        <mxCell id="-Rt-zTYZwK-1e3K4c5Id-6" value="Координаты" style="text;html=1;align=center;verticalAlign=middle;resizable=0;points=[];autosize=1;strokeColor=none;fillColor=none;" vertex="1" parent="1">
          <mxGeometry x="134" y="123" width="90" height="30" as="geometry" />
        </mxCell>
        <mxCell id="-Rt-zTYZwK-1e3K4c5Id-7" value="База данных (testDataBase.sql)" style="rounded=1;whiteSpace=wrap;html=1;" vertex="1" parent="1">
          <mxGeometry x="55" y="400" width="120" height="60" as="geometry" />
        </mxCell>
        <mxCell id="-Rt-zTYZwK-1e3K4c5Id-8" value="" style="endArrow=classic;html=1;rounded=0;exitX=0.25;exitY=1;exitDx=0;exitDy=0;" edge="1" parent="1" source="-Rt-zTYZwK-1e3K4c5Id-2">
          <mxGeometry width="50" height="50" relative="1" as="geometry">
            <mxPoint x="25" y="370" as="sourcePoint" />
            <mxPoint x="85" y="400" as="targetPoint" />
          </mxGeometry>
        </mxCell>
        <mxCell id="-Rt-zTYZwK-1e3K4c5Id-9" value="" style="endArrow=classic;html=1;rounded=0;entryX=0.75;entryY=0;entryDx=0;entryDy=0;exitX=0.75;exitY=1;exitDx=0;exitDy=0;" edge="1" parent="1" source="-Rt-zTYZwK-1e3K4c5Id-2" target="-Rt-zTYZwK-1e3K4c5Id-7">
          <mxGeometry width="50" height="50" relative="1" as="geometry">
            <mxPoint x="115" y="370" as="sourcePoint" />
            <mxPoint x="165" y="320" as="targetPoint" />
          </mxGeometry>
        </mxCell>
        <mxCell id="-Rt-zTYZwK-1e3K4c5Id-10" value="Запрос всех&amp;nbsp;&lt;div&gt;координат&lt;/div&gt;" style="text;html=1;align=center;verticalAlign=middle;resizable=0;points=[];autosize=1;strokeColor=none;fillColor=none;" vertex="1" parent="1">
          <mxGeometry y="323" width="90" height="40" as="geometry" />
        </mxCell>
        <mxCell id="-Rt-zTYZwK-1e3K4c5Id-11" value="Все&amp;nbsp;&lt;div&gt;координаты&lt;/div&gt;" style="text;html=1;align=center;verticalAlign=middle;resizable=0;points=[];autosize=1;strokeColor=none;fillColor=none;" vertex="1" parent="1">
          <mxGeometry x="134" y="313" width="90" height="40" as="geometry" />
        </mxCell>
        <mxCell id="-Rt-zTYZwK-1e3K4c5Id-13" value="Диагармма последовательности" style="swimlane;horizontal=0;whiteSpace=wrap;html=1;" vertex="1" parent="1">
          <mxGeometry x="350" y="20" width="370" height="350" as="geometry">
            <mxRectangle x="350" y="20" width="40" height="350" as="alternateBounds" />
          </mxGeometry>
        </mxCell>
        <mxCell id="-Rt-zTYZwK-1e3K4c5Id-14" value="" style="html=1;points=[[0,0,0,0,5],[0,1,0,0,-5],[1,0,0,0,5],[1,1,0,0,-5]];perimeter=orthogonalPerimeter;outlineConnect=0;targetShapes=umlLifeline;portConstraint=eastwest;newEdgeStyle={&quot;curved&quot;:0,&quot;rounded&quot;:0};" vertex="1" parent="-Rt-zTYZwK-1e3K4c5Id-13">
          <mxGeometry x="54" y="111" width="10" height="220" as="geometry" />
        </mxCell>
        <mxCell id="-Rt-zTYZwK-1e3K4c5Id-17" value="Клиент" style="shape=umlActor;verticalLabelPosition=bottom;verticalAlign=top;html=1;" vertex="1" parent="-Rt-zTYZwK-1e3K4c5Id-13">
          <mxGeometry x="44" y="21" width="30" height="60" as="geometry" />
        </mxCell>
        <mxCell id="-Rt-zTYZwK-1e3K4c5Id-18" value="Запрос координат" style="html=1;verticalAlign=bottom;endArrow=block;curved=0;rounded=0;" edge="1" parent="-Rt-zTYZwK-1e3K4c5Id-13">
          <mxGeometry width="80" relative="1" as="geometry">
            <mxPoint x="64" y="141" as="sourcePoint" />
            <mxPoint x="180" y="141" as="targetPoint" />
          </mxGeometry>
        </mxCell>
        <mxCell id="-Rt-zTYZwK-1e3K4c5Id-19" value="" style="html=1;points=[[0,0,0,0,5],[0,1,0,0,-5],[1,0,0,0,5],[1,1,0,0,-5]];perimeter=orthogonalPerimeter;outlineConnect=0;targetShapes=umlLifeline;portConstraint=eastwest;newEdgeStyle={&quot;curved&quot;:0,&quot;rounded&quot;:0};" vertex="1" parent="-Rt-zTYZwK-1e3K4c5Id-13">
          <mxGeometry x="180" y="111" width="10" height="220" as="geometry" />
        </mxCell>
        <mxCell id="-Rt-zTYZwK-1e3K4c5Id-20" value="Сервер" style="text;html=1;align=center;verticalAlign=middle;resizable=0;points=[];autosize=1;strokeColor=none;fillColor=none;" vertex="1" parent="-Rt-zTYZwK-1e3K4c5Id-13">
          <mxGeometry x="150" y="79" width="70" height="30" as="geometry" />
        </mxCell>
        <mxCell id="-Rt-zTYZwK-1e3K4c5Id-21" value="" style="html=1;points=[[0,0,0,0,5],[0,1,0,0,-5],[1,0,0,0,5],[1,1,0,0,-5]];perimeter=orthogonalPerimeter;outlineConnect=0;targetShapes=umlLifeline;portConstraint=eastwest;newEdgeStyle={&quot;curved&quot;:0,&quot;rounded&quot;:0};" vertex="1" parent="-Rt-zTYZwK-1e3K4c5Id-13">
          <mxGeometry x="310" y="111" width="10" height="220" as="geometry" />
        </mxCell>
        <mxCell id="-Rt-zTYZwK-1e3K4c5Id-22" value="БД" style="text;html=1;align=center;verticalAlign=middle;resizable=0;points=[];autosize=1;strokeColor=none;fillColor=none;" vertex="1" parent="-Rt-zTYZwK-1e3K4c5Id-13">
          <mxGeometry x="295" y="79" width="40" height="30" as="geometry" />
        </mxCell>
        <mxCell id="-Rt-zTYZwK-1e3K4c5Id-23" value="Запрос координат" style="html=1;verticalAlign=bottom;endArrow=block;curved=0;rounded=0;" edge="1" parent="-Rt-zTYZwK-1e3K4c5Id-13" target="-Rt-zTYZwK-1e3K4c5Id-21">
          <mxGeometry width="80" relative="1" as="geometry">
            <mxPoint x="190" y="181" as="sourcePoint" />
            <mxPoint x="300" y="181" as="targetPoint" />
          </mxGeometry>
        </mxCell>
        <mxCell id="-Rt-zTYZwK-1e3K4c5Id-24" value="&quot;Сырые&quot; координаты" style="html=1;verticalAlign=bottom;endArrow=open;dashed=1;endSize=8;curved=0;rounded=0;" edge="1" parent="-Rt-zTYZwK-1e3K4c5Id-13" target="-Rt-zTYZwK-1e3K4c5Id-19">
          <mxGeometry relative="1" as="geometry">
            <mxPoint x="310" y="251" as="sourcePoint" />
            <mxPoint x="230" y="251" as="targetPoint" />
          </mxGeometry>
        </mxCell>
        <mxCell id="-Rt-zTYZwK-1e3K4c5Id-25" value="&quot;Готовые&quot;&lt;br&gt;&lt;div&gt;координаты&lt;/div&gt;" style="html=1;verticalAlign=bottom;endArrow=open;dashed=1;endSize=8;curved=0;rounded=0;" edge="1" parent="-Rt-zTYZwK-1e3K4c5Id-13">
          <mxGeometry relative="1" as="geometry">
            <mxPoint x="180" y="291" as="sourcePoint" />
            <mxPoint x="70" y="291" as="targetPoint" />
          </mxGeometry>
        </mxCell>
      </root>
    </mxGraphModel>
  </diagram>
</mxfile>
